<?xml version="1.0" encoding="utf-8"?>
<!-- Generator: Adobe Illustrator 28.0.0, SVG Export Plug-In . SVG Version: 6.00 Build 0)  -->
<svg version="1.1" id="Layer_1" xmlns="http://www.w3.org/2000/svg" xmlns:xlink="http://www.w3.org/1999/xlink" x="0px" y="0px"
	 viewBox="0 0 802.1 59.4" style="enable-background:new 0 0 802.1 59.4;" xml:space="preserve">
<path d="M786.4,52.4c8.8,0,14.4-5.4,14.4-13.3c0-6.7-3.9-11.2-10.8-12.6l-7-1.4c-5-1-6.7-3.8-6.7-7.1c0-4.9,4-7.6,9-7.6
	s10.8,2.6,11.3,10.4h3.5l-1.2-13.5h-3.5c0,1.9-0.5,2.4-1.1,2.4c-1.5,0-4.2-3.1-10.1-3.1c-7.5,0-13,4.9-13,12.4
	c0,5.6,3.1,10.4,10.6,11.9l6.7,1.3c5.1,1,7.3,4,7.3,8c0,5.7-4.4,8.5-10.1,8.5c-6.6,0-11.3-3.7-12.2-12.2H770l1.3,15.5h3.3
	c0.1-1.9,0.4-2.7,1.5-2.7C778.3,49.4,779.7,52.4,786.4,52.4 M763.7,11V7.9H749L736.9,44L725,7.9h-14.9V11h3.8c2,0,2.7,0.8,2.7,3.1
	V43c0,4.2-1.5,5.3-4.9,5.3H710v3.1h17v-3.1h-1.5c-3.3,0-4.9-1.1-4.9-5.3V11.2l13.5,40.3h4.2l13.5-40.3v34.2c0,2.2-0.8,3-3.5,3h-3
	v3.1h18.3v-3.1h-4c-1.8,0-2.4-0.8-2.4-3V14c0-2.2,0.7-2.9,2.8-2.9h3.7V11z M681.9,14.1l6,17.4h-12.1L681.9,14.1z M702.6,48.3
	c-2.4,0-3.4-0.8-4.3-3.4l-13-37.4h-5.2l-12.3,35.6c-1.4,4-2.6,5.2-5.6,5.2h-1.6v3.1H677v-3.1h-1.9c-3.7,0-4.6-1.5-3.2-5.4l2.6-7.7
	h14.6l3.3,9.7c0.9,2.6,0.4,3.4-2.2,3.4h-3.3v3.1h17.8v-3.1C704.7,48.3,702.6,48.3,702.6,48.3z M653.6,51.5v-3.1h-3.8
	c-1.9,0-2.6-0.8-2.6-2.9V14c0-2.2,0.6-2.9,2.6-2.9h3.8V7.9h-18.3V11h3.8c1.9,0,2.6,0.8,2.6,2.9v31.4c0,2.2-0.6,2.9-2.6,2.9h-3.8v3.1
	h18.3V51.5z M625.2,39.6c-0.6,7.4-1.9,8.7-7.4,8.7H605V14c0-2.2,0.7-2.9,2.8-2.9h3.8V7.9h-18.7V11h3.8c2.1,0,2.8,0.8,2.8,2.9v31.4
	c0,2.2-0.6,2.9-2.4,2.9H593v3.1h34.9l0.8-11.9h-3.5V39.6z M582.9,39.6c-0.6,7.4-1.9,8.7-7.4,8.7h-12.8V14c0-2.2,0.7-2.9,2.8-2.9h3.8
	V7.9h-18.7V11h3.8c2.1,0,2.8,0.8,2.8,2.9v31.4c0,2.2-0.6,2.9-2.4,2.9h-4.2v3.1h34.9l0.8-11.9h-3.4V39.6z M542.3,51.5v-3.1h-3.8
	c-1.9,0-2.6-0.8-2.6-2.9V14c0-2.2,0.6-2.9,2.6-2.9h3.8V7.9H524V11h3.8c1.9,0,2.6,0.8,2.6,2.9v31.4c0,2.2-0.6,2.9-2.6,2.9H524v3.1
	h18.3V51.5z M502.4,11h1.9c3.7,0,4.4,1.5,3.2,5.4l-8.7,28.5l-9.4-30.5c-0.8-2.6-0.4-3.4,2.2-3.4h3.3V7.9h-17.2V11h1.7
	c2.4,0,3.5,0.8,4.3,3.4l2.1,6.9l-9.4,24l-9.5-30.8c-0.8-2.6-0.4-3.4,2.2-3.4h3.3V7.9h-17.8V11h2.3c2.4,0,3.5,0.8,4.3,3.4l11.7,37.4
	h5.2l9.6-24.8l7.8,24.8h5.2l11-35.6c1.3-4,2.6-5.2,5.6-5.2h1.7V7.9h-16.4V11H502.4z M452,32.3h-15.4v3.9h15.5v-3.9H452z M420.7,11
	h3.7c2.2,0,2.7,1.3,1.5,3.2L417.5,28l-9.2-14.4c-1-1.5-0.4-2.5,1.1-2.5h3.8V7.9h-17.8V11h2.1c2,0,3.2,0.6,4.9,3.4l11,17.4v13.6
	c0,2.2-0.6,2.9-2.6,2.9h-5.1v3.1h20.9v-3.1h-5.1c-1.9,0-2.6-0.8-2.6-2.9v-13l11.2-18c1.5-2.5,2.9-3.3,5.2-3.3h1.7V7.9h-16.5V11
	H420.7z M387.2,40.3c-0.6,6.8-1.9,8-7.4,8H367V31h6.3c4.2,0,5.4,1,5.4,6.4h3.4v-16h-3.4c0,5.4-1.3,6.4-5.4,6.4H367V11.1h11.2
	c5.4,0,7.4,1.2,8,6.7h3.4l-0.8-9.9h-33.9V11h3.8c2.1,0,2.8,0.8,2.8,2.9v31.4c0,2.2-0.6,2.9-2.4,2.9H355v3.1h34.9l0.8-11.2h-3.5V40.3
	z M329.1,11.4c7,0,9.9,2.9,9.9,7.7c0,4.9-2.6,8.3-9.1,8.3h-8.8v-16C321.1,11.4,329.1,11.4,329.1,11.4z M346.8,48.3
	c-1.9,0-2.6-0.5-3.5-1.9l-10.4-15.7c9-1.1,11.7-6.9,11.7-11.7c0-6.2-4.7-11.2-15-11.2H309V11h3.7c2.1,0,2.8,0.8,2.8,2.9v31.4
	c0,2.2-0.6,2.9-2.4,2.9H309v3.1h18.1v-3.1h-3.2c-2.1,0-2.8-0.8-2.8-2.9V30.8h5.6l13.2,20.6h10.6v-3.1
	C350.5,48.3,346.8,48.3,346.8,48.3z M281.5,14.1l6,17.4h-12.1L281.5,14.1z M302.2,48.3c-2.4,0-3.4-0.8-4.3-3.4l-13-37.4h-5.2
	l-12.3,35.6c-1.4,4-2.6,5.2-5.6,5.2h-1.7v3.1h16.5v-3.1h-1.9c-3.7,0-4.6-1.5-3.2-5.4l2.6-7.7h14.6l3.3,9.7c0.9,2.6,0.4,3.4-2.2,3.4
	h-3.3v3.1h17.8v-3.1C304.3,48.3,302.2,48.3,302.2,48.3z M238.2,52.5c10.4,0,17.4-7.1,18.3-17.7h-2.9c-1.4,8.5-6.8,13.1-13.8,13.1
	c-8.7,0-16-6.7-16-18.8c0-10.2,5.3-18.9,15.5-18.9c7.2,0,12.6,3.6,13.7,11.5h3.5l-1.2-14.2h-3.5c0.1,2.1-0.4,2.6-1.2,2.6
	c-1.7,0-4.4-3.2-11.2-3.2c-13,0-21.8,10.5-21.8,23.1C217.6,42.8,226.7,52.5,238.2,52.5 M187.3,7.9H151l-0.8,11.9h3.5
	c0.6-7.3,2.6-8.7,8-8.7h4.6v34.3c0,2.2-0.6,2.9-2.6,2.9h-5.1v3.1h21v-3.1h-5c-1.9,0-2.6-0.8-2.6-2.9V11.1h4.6c5.4,0,7.4,1.3,8,8.7
	h3.5L187.3,7.9z M142.4,7.9h-36.3l-0.8,11.9h3.5c0.6-7.3,2.6-8.7,8-8.7h4.6v34.3c0,2.2-0.6,2.9-2.6,2.9h-5.1v3.1h20.9v-3.1h-5.1
	c-1.9,0-2.6-0.8-2.6-2.9V11.1h4.6c5.4,0,7.4,1.3,8,8.7h3.5L142.4,7.9z M82.4,14.1l6,17.4h-12L82.4,14.1z M103.1,48.3
	c-2.4,0-3.4-0.8-4.3-3.4l-13-37.4h-5.2L68.3,43.1c-1.4,4-2.6,5.2-5.6,5.2H61v3.1h16.4v-3.1h-1.8c-3.7,0-4.6-1.5-3.2-5.4l2.6-7.7
	h14.6l3.3,9.7c0.9,2.6,0.4,3.4-2.2,3.4h-3.1v3.1h17.8v-3.1H103.1z M54.7,11V7.9H39.9L27.9,44L16,7.9H1.1V11h3.8c2,0,2.7,0.8,2.7,3.1
	V43c0,4.2-1.5,5.3-4.9,5.3H1.1v3.1h17v-3.1h-1.5c-3.3,0-4.9-1.1-4.9-5.3V11.2l13.5,40.3h4.2l13.5-40.3v34.2c0,2.2-0.8,3-3.5,3h-3
	v3.1h18.3v-3.1h-4.1c-1.8,0-2.4-0.8-2.4-3V14c0-2.2,0.7-2.9,2.8-2.9h3.7V11z"/>
</svg>
