<?xml version="1.0" encoding="utf-8"?>
<!-- Generator: Adobe Illustrator 28.0.0, SVG Export Plug-In . SVG Version: 6.00 Build 0)  -->
<svg version="1.1" id="Layer_1" xmlns="http://www.w3.org/2000/svg" xmlns:xlink="http://www.w3.org/1999/xlink" x="0px" y="0px"
	 viewBox="0 0 753.9 59.4" style="enable-background:new 0 0 753.9 59.4;" xml:space="preserve">
<path class="st0" d="M748.5,40.4c-0.6,6.8-1.9,8-7.4,8h-12.8V31.1h6.3c4.2,0,5.4,1,5.4,6.4h3.4v-16h-3.2c0,5.4-1.3,6.4-5.4,6.4h-6.3
	V11.2h11.2c5.4,0,7.4,1.2,8,6.7h3.4L750.2,8h-33.9v3.1h3.8c2.1,0,2.8,0.8,2.8,2.9v31.4c0,2.2-0.6,2.9-2.4,2.9h-4.1v3.1h34.9
	l0.8-11.2h-3.6V40.4z M688.4,52.6c10.3,0,15.8-6,15.8-14.9V16.5c0-4.2,1.3-5.3,4.2-5.3h1.5V8h-16.8v3.1h2.8c2.9,0,4.2,1.1,4.2,5.3
	v21.2c0,6.3-3.6,10.8-11,10.8c-7.9,0-11.7-4.5-11.7-10.8V14.1c0-2.2,0.6-2.9,2.4-2.9h4.4V8h-19v3.1h3.8c2.1,0,2.8,0.8,2.8,2.9v23.8
	C671.8,48,679.2,52.6,688.4,52.6 M658.7,8h-36.3l-0.8,11.9h3.5c0.6-7.3,2.6-8.7,8-8.7h4.6v34.3c0,2.2-0.6,2.9-2.6,2.9H630v3.1h20.9
	v-3.1h-5.1c-1.9,0-2.6-0.8-2.6-2.9V11.2h4.6c5.4,0,7.4,1.3,8,8.7h3.5L658.7,8z M598.4,11.5c7,0,9.9,2.9,9.9,7.7
	c0,4.9-2.6,8.3-9.1,8.3h-8.8v-16C590.4,11.5,598.4,11.5,598.4,11.5z M616.1,48.5c-1.9,0-2.6-0.5-3.5-1.9l-10.4-15.8
	c9-1.1,11.7-6.9,11.7-11.7c0-6.2-4.7-11.2-15-11.2h-20.7v3.2h3.7c2.1,0,2.8,0.8,2.8,2.9v31.4c0,2.2-0.6,2.9-2.4,2.9h-4.1v3.1h18.1
	v-3.1h-3.2c-2.1,0-2.8-0.8-2.8-2.9V31h5.6l13.2,20.6h10.6v-3.1H616.1z M571.8,51.6v-3.1H568c-1.9,0-2.6-0.8-2.6-2.9V14.1
	c0-2.2,0.6-2.9,2.6-2.9h3.8V8h-18.3v3.1h3.8c1.9,0,2.6,0.8,2.6,2.9v31.4c0,2.2-0.6,2.9-2.6,2.9h-3.8v3.1h18.3V51.6z M531.3,11.1h1.9
	c3.7,0,4.6,1.5,3.2,5.4l-9.9,28.8l-10.6-30.8c-0.9-2.6-0.4-3.4,2.2-3.4h3.3V8h-17.8v3.1h2.3c2.4,0,3.4,0.8,4.3,3.4l12.9,37.4h5.2
	l12.3-35.6c1.4-4,2.6-5.2,5.6-5.2h1.7V8h-16.4v3.1H531.3z M460.1,14.2l6,17.4H454L460.1,14.2z M480.8,48.5c-2.4,0-3.4-0.8-4.3-3.4
	l-13-37.4h-5.2L446,43.3c-1.4,4-2.6,5.2-5.6,5.2h-1.7v3.1h16.4v-3.1h-1.9c-3.7,0-4.6-1.5-3.2-5.4l2.6-7.7h14.6l3.3,9.7
	c0.9,2.6,0.4,3.4-2.2,3.4H465v3.1h17.8v-3.1C482.8,48.5,480.8,48.5,480.8,48.5z M396,52.6c8.8,0,14.4-5.4,14.4-13.3
	c0-6.7-3.9-11.2-10.8-12.6l-7-1.4c-5-1-6.7-3.8-6.7-7.1c0-4.9,4-7.6,9-7.6s10.8,2.6,11.3,10.4h3.5l-1.2-13.5H405
	c0,1.9-0.5,2.4-1.1,2.4c-1.5,0-4.2-3.1-10.1-3.1c-7.5,0-13,4.9-13,12.4c0,5.6,3.1,10.5,10.6,11.9l6.7,1.3c5.1,1,7.3,4,7.3,8
	c0,5.7-4.4,8.5-10.1,8.5c-6.6,0-11.3-3.7-12.2-12.2h-3.5l1.3,15.4h3.3c0.1-1.9,0.4-2.7,1.5-2.7C387.8,49.5,389.2,52.6,396,52.6
	 M373.2,51.6v-3.1h-3.8c-1.9,0-2.6-0.8-2.6-2.9V14.1c0-2.2,0.6-2.9,2.6-2.9h3.8V8h-18.3v3.1h3.8c1.9,0,2.6,0.8,2.6,2.9v31.4
	c0,2.2-0.6,2.9-2.6,2.9h-3.8v3.1h18.3V51.6z M321,40.4c-0.6,6.8-1.9,8-7.4,8h-12.8V31.1h6.3c4.2,0,5.4,1,5.4,6.4h3.4v-16h-3.4
	c0,5.4-1.3,6.4-5.4,6.4h-6.3V11.2H312c5.4,0,7.4,1.2,8,6.7h3.4L322.6,8h-33.9v3.1h3.8c2.1,0,2.8,0.8,2.8,2.9v31.4
	c0,2.2-0.6,2.9-2.4,2.9h-4.1v3.1h34.9l0.8-11.2H321L321,40.4L321,40.4z M264.1,52.6c10.5,0,17.4-7.1,18.3-17.7h-2.9
	c-1.4,8.5-6.8,13.1-13.8,13.1c-8.7,0-16-6.7-16-18.8c0-10.2,5.3-18.9,15.5-18.9c7.2,0,12.6,3.6,13.7,11.5h3.5l-1.2-14.2h-3.5
	c0.1,2.1-0.4,2.6-1.2,2.6c-1.7,0-4.4-3.2-11.2-3.2c-12.9,0-21.7,10.6-21.7,23.1C243.4,42.9,252.6,52.6,264.1,52.6 M220.5,11.1h3
	c3.3,0,4.9,1.1,4.9,5.3v26.5L205.5,8h-12v3.1h3.8c2.1,0,2.8,0.8,2.8,2.9v29.1c0,4.2-1.5,5.3-4.9,5.3h-1.7v3.1H212v-3.1h-3
	c-3.3,0-4.9-1.1-4.9-5.3V15.6l24,36.7h4.4V16.5c0-4.2,1.5-5.3,4.9-5.3h1.7V8h-18.5v3.1H220.5z M182.1,40.4c-0.6,6.8-1.9,8-7.4,8
	h-12.8V31.1h6.3c4.2,0,5.4,1,5.4,6.4h3.4v-16h-3.4c0,5.4-1.3,6.4-5.4,6.4h-6.3V11.2h11.2c5.4,0,7.4,1.2,8,6.7h3.4L183.7,8h-33.9v3.1
	h3.8c2.1,0,2.8,0.8,2.8,2.9v31.4c0,2.2-0.6,2.9-2.4,2.9h-4.1v3.1h34.9l0.8-11.2h-3.5V40.4z M142.8,51.6v-3.1H139
	c-1.9,0-2.6-0.8-2.6-2.9V14.1c0-2.2,0.6-2.9,2.6-2.9h3.8V8h-18.3v3.1h3.8c1.9,0,2.6,0.8,2.6,2.9v31.4c0,2.2-0.6,2.9-2.6,2.9h-3.8
	v3.1h18.3V51.6z M117.3,8H81l-0.8,11.9h3.5c0.6-7.3,2.6-8.7,8-8.7h4.6v34.3c0,2.2-0.6,2.9-2.6,2.9h-5.1v3.1h20.9v-3.1h-5.1
	c-1.9,0-2.6-0.8-2.6-2.9V11.2h4.6c5.4,0,7.4,1.3,8,8.7h3.5L117.3,8z M56.8,14.2l6,17.4h-12L56.8,14.2z M77.5,48.5
	c-2.4,0-3.4-0.8-4.3-3.4L60.3,7.6h-5.2L42.8,43.3c-1.4,4-2.6,5.2-5.6,5.2h-1.7v3.1h16.4v-3.1H50c-3.7,0-4.6-1.5-3.2-5.4l2.6-7.7H64
	l3.3,9.7c0.9,2.6,0.4,3.4-2.2,3.4h-3.3v3.1h17.8v-3.1H77.5z M13.3,30.2V11.5H20c7.2,0,10.5,3.5,10.5,9c0,5.8-2.9,9.7-9.7,9.7H13.3z
	 M1.2,8v3.1h3.7c2.1,0,2.8,0.8,2.8,2.9v31.4c0,2.2-0.6,2.9-2.4,2.9H1.2v3.1h19v-3.1h-4.1c-2.1,0-2.8-0.8-2.8-2.9V33.6H21
	c11.7,0,15.2-7.4,15.2-13.1C36.2,13.6,31.1,8,20.6,8H1.2z"/>
</svg>
