<?xml version="1.0" encoding="utf-8"?>
<!-- Generator: Adobe Illustrator 28.0.0, SVG Export Plug-In . SVG Version: 6.00 Build 0)  -->
<svg version="1.1" id="Layer_1" xmlns="http://www.w3.org/2000/svg" xmlns:xlink="http://www.w3.org/1999/xlink" x="0px" y="0px"
	 viewBox="0 0 499.1 59.4" style="enable-background:new 0 0 499.1 59.4;" xml:space="preserve">
<path class="st0" d="M478,11.2h3c3.3,0,4.9,1.1,4.9,5.3V43L463,8.1h-12v3.1h3.8c2.1,0,2.8,0.8,2.8,2.9v29.1c0,4.2-1.5,5.3-4.9,5.3
	H451v3.1h18.5v-3.1h-3c-3.3,0-4.9-1.1-4.9-5.3V15.7l24,36.7h4.4V16.6c0-4.2,1.5-5.3,4.9-5.3h1.7V8.1h-18.5L478,11.2L478,11.2z
	 M423.7,49.1c-8.8,0-15.4-6.9-15.4-18.8s6.5-19.5,15.7-19.5c8.8,0,15.5,6.9,15.5,18.8C439.4,41.6,432.8,49.1,423.7,49.1 M423.6,52.7
	c12.6,0,22.2-10.5,22.2-23.1S436.1,7.1,424,7.1c-12.6,0-22.2,10.5-22.2,23.1C401.9,42.8,411.5,52.7,423.6,52.7 M372,49.1
	c-8.8,0-15.4-6.9-15.4-18.8s6.5-19.5,15.7-19.5c8.8,0,15.5,6.9,15.5,18.8C387.8,41.6,381.2,49.1,372,49.1 M371.9,52.7
	c12.6,0,22.2-10.5,22.2-23.1s-9.7-22.5-21.8-22.5c-12.6,0-22.2,10.5-22.2,23.1C350.2,42.8,359.8,52.7,371.9,52.7 M327.8,52.6
	c8.8,0,14.4-5.4,14.4-13.3c0-6.7-3.9-11.2-10.8-12.6l-7-1.4c-5-1-6.7-3.8-6.7-7.1c0-4.9,4-7.6,9-7.6s10.8,2.6,11.3,10.5h3.5
	l-1.2-13.5h-3.5c0,1.9-0.5,2.4-1.1,2.4c-1.5,0-4.2-3.1-10.1-3.1c-7.5,0-13,4.9-13,12.4c0,5.6,3.1,10.4,10.6,11.9l6.7,1.3
	c5.1,1,7.3,4,7.3,8c0,5.7-4.4,8.5-10.1,8.5c-6.6,0-11.3-3.7-12.2-12.2h-3.5l1.3,15.5h3.3c0.1-1.9,0.4-2.7,1.5-2.7
	C319.7,49.6,321.1,52.6,327.8,52.6 M260.7,52.7c7.3,0,12.1-2.2,15.2-4.4V37.2c0-2.2,0.6-2.9,2.7-2.9h2.2v-3.1h-17.1v3.1h3.7
	c2,0,2.6,0.8,2.6,2.9v9.5c-1.3,1.3-4.8,2.8-9.3,2.8c-10.5,0-17.6-8-17.6-19.8c0-10.7,5.7-19.3,16.3-19.3c7.6,0,12.6,3.7,13.7,11.5
	h3.5l-1.2-14.2h-3.5c0.1,2.1-0.4,2.6-1.2,2.6c-1.8,0-4.1-3.2-11.2-3.2c-13.5,0-22.8,10.4-22.8,23.3
	C236.8,41.8,244.2,52.7,260.7,52.7 M213.8,11.2h3c3.3,0,4.9,1.1,4.9,5.3V43L198.8,8.1h-12v3.1h3.8c2.1,0,2.8,0.8,2.8,2.9v29.1
	c0,4.2-1.5,5.3-4.9,5.3h-1.7v3.1h18.5v-3.1h-3c-3.3,0-4.9-1.1-4.9-5.3V15.7l24,36.7h4.4V16.6c0-4.2,1.5-5.3,4.9-5.3h1.7V8.1h-18.5
	v3.1H213.8z M179.2,51.7v-3.1h-3.8c-1.9,0-2.6-0.8-2.6-2.9V14.2c0-2.2,0.6-2.9,2.6-2.9h3.8V8.1h-18.3v3.1h3.8c1.9,0,2.6,0.8,2.6,2.9
	v31.4c0,2.2-0.6,2.9-2.6,2.9h-3.8v3.1h18.3V51.7z M153.1,11.2V8.1h-14.7l-12.1,36.1L114.5,8.1H99.6v3.1h3.8c2,0,2.7,0.8,2.7,3.1
	v28.8c0,4.2-1.5,5.3-4.9,5.3h-1.7v3.1h17v-3.1H115c-3.3,0-4.9-1.1-4.9-5.3V11.4l13.5,40.3h4.2l13.5-40.3v34.2c0,2.2-0.8,3-3.5,3h-3
	v3.1h18.3v-3.1H149c-1.8,0-2.4-0.8-2.4-3V14.2c0-2.2,0.7-2.9,2.8-2.9L153.1,11.2L153.1,11.2z M71.6,49.1c-8.8,0-15.4-6.9-15.4-18.8
	s6.5-19.5,15.7-19.5c8.8,0,15.5,6.9,15.5,18.8C87.4,41.6,80.8,49.1,71.6,49.1 M71.5,52.7c12.6,0,22.2-10.5,22.2-23.1
	S84,7.1,71.9,7.1c-12.6,0-22.2,10.5-22.2,23.1C49.8,42.8,59.4,52.7,71.5,52.7 M23.5,52.7c10.4,0,17.4-7.1,18.3-17.7h-2.9
	c-1.4,8.5-6.8,13.1-13.8,13.1c-8.7,0-16-6.7-16-18.8c0-10.2,5.3-18.9,15.5-18.9c7.2,0,12.6,3.6,13.7,11.5h3.5L40.6,7.7h-3.5
	c0.1,2.1-0.4,2.6-1.2,2.6c-1.7,0-4.4-3.2-11.2-3.2C11.8,7.1,3,17.7,3,30.2C2.9,43,12,52.7,23.5,52.7"/>
</svg>
